<svg
  xmlns="http://www.w3.org/2000/svg"
  width="30.904"
  height="25.1"
  viewBox="0 0 30.904 25.1"
>
  <g id="twitter-brands" transform="translate(0 -48.082)" fill="none">
    <path
      d="M27.728,54.337c.02.275.02.549.02.824,0,8.373-6.373,18.021-18.021,18.021A17.9,17.9,0,0,1,0,70.339a13.1,13.1,0,0,0,1.53.078,12.685,12.685,0,0,0,7.863-2.706,6.345,6.345,0,0,1-5.922-4.393,7.988,7.988,0,0,0,1.2.1A6.7,6.7,0,0,0,6.334,63.2a6.335,6.335,0,0,1-5.079-6.216v-.078a6.379,6.379,0,0,0,2.863.8,6.343,6.343,0,0,1-1.961-8.471,18,18,0,0,0,13.06,6.628,7.15,7.15,0,0,1-.157-1.451,6.34,6.34,0,0,1,10.962-4.334,12.47,12.47,0,0,0,4.02-1.53,6.317,6.317,0,0,1-2.785,3.49,12.7,12.7,0,0,0,3.647-.98,13.615,13.615,0,0,1-3.177,3.275Z"
      stroke="none"
    />
    <path
      d="M 21.39385032653809 50.08202362060547 C 19.004150390625 50.08202362060547 17.05998992919922 52.02618408203125 17.05998992919922 54.41588592529297 C 17.05998992919922 54.74222564697266 17.09862899780273 55.09322357177734 17.17485046386719 55.45909881591797 L 17.70402145385742 57.99961090087891 L 15.11252021789551 57.86422348022461 C 10.77994346618652 57.63785552978516 6.666967391967773 56.01358032226563 3.380607604980469 53.29950714111328 C 3.605815887451172 54.41221618652344 4.261173248291016 55.40203857421875 5.227310180664063 56.04613494873047 L 11.12152099609375 59.97563171386719 L 4.217250823974609 59.71539688110352 C 4.227008819580078 59.72743606567383 4.236839294433594 59.73944091796875 4.246740341186523 59.75140380859375 C 4.879011154174805 60.51524353027344 5.761350631713867 61.04418182373047 6.731229782104492 61.24080276489258 L 6.826128005981445 64.78508758544922 C 7.553291320800781 65.35303497314453 8.462375640869141 65.69100952148438 9.435199737548828 65.71157073974609 L 15.03520011901855 65.82994079589844 L 10.62668991088867 69.28524780273438 C 9.722318649291992 69.99406433105469 8.754270553588867 70.58731842041016 7.736745834350586 71.06008911132813 C 8.393150329589844 71.14112854003906 9.057415008544922 71.18212127685547 9.726301193237305 71.18212127685547 C 15.75964069366455 71.18212127685547 19.51593017578125 68.35801696777344 21.60466003417969 65.98888397216797 C 22.93354034423828 64.48159790039063 23.97381019592285 62.7385139465332 24.69657135009766 60.80802154541016 C 25.38401985168457 58.97184371948242 25.74739074707031 57.01914978027344 25.74739074707031 55.16104125976563 C 25.74739074707031 54.91537475585938 25.74739074707031 54.68331909179688 25.73286056518555 54.47998046875 L 25.65391159057617 53.37528991699219 L 26.54833984375 52.72218322753906 C 26.67930793762207 52.62654876708984 26.80805587768555 52.52828216552734 26.93464469909668 52.42733001708984 L 26.78085708618164 51.96745300292969 C 26.6535530090332 51.99558258056641 26.52595901489258 52.02192687988281 26.39837074279785 52.04639434814453 L 25.31554985046387 52.25405120849609 L 24.5618896484375 51.44930267333984 C 23.73616027832031 50.56760406494141 22.61106109619141 50.08202362060547 21.39385032653809 50.08202362060547 M 21.39385032653809 48.08202362060547 C 23.21751976013184 48.08202362060547 24.86470031738281 48.84677886962891 26.02168083190918 50.08218383789063 C 27.4531307220459 49.80766296386719 28.82579040527344 49.27818298339844 30.04162979125977 48.55266571044922 C 29.5709400177002 50.02339172363281 28.57088088989258 51.2587890625 27.257080078125 52.04312133789063 C 28.53170967102051 51.90591430664063 29.76711082458496 51.55287170410156 30.90442085266113 51.06268310546875 C 30.04174995422363 52.31763458251953 28.96317100524902 53.43533325195313 27.72776985168457 54.33740997314453 C 27.74739074707031 54.61194610595703 27.74739074707031 54.88651275634766 27.74739074707031 55.16104125976563 C 27.74739074707031 63.53423309326172 21.37435150146484 73.18212127685547 9.726301193237305 73.18212127685547 C 6.137750625610352 73.18212127685547 2.804161071777344 72.14277648925781 0 70.33879089355469 C 0.5098609924316406 70.3975830078125 1.000049591064453 70.41720581054688 1.529529571533203 70.41720581054688 C 4.490510940551758 70.41720581054688 7.216270446777344 69.41714477539063 9.39293098449707 67.71112060546875 C 6.608381271362305 67.65226745605469 4.274850845336914 65.82859802246094 3.470849990844727 63.31856155395508 C 3.863069534301758 63.37735366821289 4.255229949951172 63.41659164428711 4.667070388793945 63.41659164428711 C 5.235719680786133 63.41659164428711 5.804439544677734 63.3381233215332 6.333860397338867 63.20093154907227 C 3.431671142578125 62.61258316040039 1.254949569702148 60.06339263916016 1.254949569702148 56.98471069335938 L 1.254949569702148 56.90629577636719 C 2.09813117980957 57.37693405151367 3.078680038452148 57.67106246948242 4.117910385131836 57.71023178100586 C 2.411880493164063 56.5728759765625 1.294191360473633 54.63154602050781 1.294191360473633 52.43527984619141 C 1.294191360473633 51.25873565673828 1.607879638671875 50.18019866943359 2.156980514526367 49.23895263671875 C 5.274900436401367 53.08240509033203 9.961580276489258 55.59236907958984 15.21687030792236 55.866943359375 C 15.11884021759033 55.39630889892578 15.05999088287354 54.90613555908203 15.05999088287354 54.41588592529297 C 15.05999088287354 50.92536163330078 17.88376998901367 48.08202362060547 21.39385032653809 48.08202362060547 Z"
      stroke="none"
      fill="#7b7878"
    />
  </g>
</svg>
