<svg
  xmlns="http://www.w3.org/2000/svg"
  width="27.057"
  height="27.051"
  viewBox="0 0 27.057 27.051"
>
  <path
    id="instagram-brands"
    d="M13.456,38.415a6.935,6.935,0,1,0,6.935,6.935A6.924,6.924,0,0,0,13.456,38.415Zm0,11.444a4.509,4.509,0,1,1,4.509-4.509,4.517,4.517,0,0,1-4.509,4.509Zm8.837-11.728a1.618,1.618,0,1,1-1.618-1.618A1.614,1.614,0,0,1,22.293,38.131Zm4.593,1.642A8.005,8.005,0,0,0,24.7,34.105a8.058,8.058,0,0,0-5.668-2.185c-2.233-.127-8.927-.127-11.161,0A8.046,8.046,0,0,0,2.205,34.1,8.032,8.032,0,0,0,.02,39.767C-.107,42-.107,48.694.02,50.928A8.005,8.005,0,0,0,2.205,56.6,8.068,8.068,0,0,0,7.873,58.78c2.233.127,8.927.127,11.161,0A8.005,8.005,0,0,0,24.7,56.6a8.058,8.058,0,0,0,2.185-5.668C27.013,48.694,27.013,42.006,26.886,39.773ZM24,53.324A4.565,4.565,0,0,1,21.43,55.9c-1.781.706-6.006.543-7.974.543s-6.2.157-7.974-.543a4.565,4.565,0,0,1-2.571-2.571c-.706-1.781-.543-6.006-.543-7.974s-.157-6.2.543-7.974a4.565,4.565,0,0,1,2.571-2.571c1.781-.706,6.006-.543,7.974-.543s6.2-.157,7.974.543A4.565,4.565,0,0,1,24,37.377c.706,1.781.543,6.006.543,7.974S24.707,51.549,24,53.324Z"
    transform="translate(0.075 -31.825)"
    fill="#7b7878"
  />
</svg>
